solid OpenSCAD_Model
  facet normal -1 0 0
    outer loop
      vertex 0 10 0
      vertex 0 8.2 2
      vertex 0 10 7.5
    endloop
  endfacet
  facet normal -1 0 0
    outer loop
      vertex 0 10 0
      vertex 0 1.8 2
      vertex 0 8.2 2
    endloop
  endfacet
  facet normal -1 0 0
    outer loop
      vertex 0 0 0
      vertex 0 1.8 2
      vertex 0 10 0
    endloop
  endfacet
  facet normal -1 0 0
    outer loop
      vertex 0 0 7.5
      vertex 0 1.8 2
      vertex 0 0 0
    endloop
  endfacet
  facet normal -1 0 0
    outer loop
      vertex 0 1.8 2
      vertex 0 0 7.5
      vertex 0 1.8 7.5
    endloop
  endfacet
  facet normal -1 -0 0
    outer loop
      vertex 0 10 7.5
      vertex 0 8.2 2
      vertex 0 8.2 7.5
    endloop
  endfacet
  facet normal -0 0 1
    outer loop
      vertex 0 8.2 2
      vertex 1.8 1.8 2
      vertex 1.8 8.2 2
    endloop
  endfacet
  facet normal 0 0 1
    outer loop
      vertex 1.8 1.8 2
      vertex 0 8.2 2
      vertex 0 1.8 2
    endloop
  endfacet
  facet normal 1 0 0
    outer loop
      vertex 1.8 1.8 7.5
      vertex 1.8 0 7.5
      vertex 1.8 1.8 2
    endloop
  endfacet
  facet normal 1 0 0
    outer loop
      vertex 1.8 8.2 2
      vertex 1.8 10 7.5
      vertex 1.8 8.2 7.5
    endloop
  endfacet
  facet normal 1 0 0
    outer loop
      vertex 1.8 10 7.5
      vertex 1.8 8.2 2
      vertex 1.8 10 0
    endloop
  endfacet
  facet normal 1 -0 0
    outer loop
      vertex 1.8 1.8 2
      vertex 1.8 10 0
      vertex 1.8 8.2 2
    endloop
  endfacet
  facet normal 1 0 0
    outer loop
      vertex 1.8 1.8 2
      vertex 1.8 0 0
      vertex 1.8 10 0
    endloop
  endfacet
  facet normal 1 0 0
    outer loop
      vertex 1.8 0 0
      vertex 1.8 1.8 2
      vertex 1.8 0 7.5
    endloop
  endfacet
  facet normal 0 0 -1
    outer loop
      vertex 0 0 0
      vertex 1.8 10 0
      vertex 1.8 0 0
    endloop
  endfacet
  facet normal -0 0 -1
    outer loop
      vertex 1.8 10 0
      vertex 0 0 0
      vertex 0 10 0
    endloop
  endfacet
  facet normal 0 -1 0
    outer loop
      vertex 0 0 0
      vertex 1.8 0 7.5
      vertex 0 0 7.5
    endloop
  endfacet
  facet normal 0 -1 -0
    outer loop
      vertex 1.8 0 7.5
      vertex 0 0 0
      vertex 1.8 0 0
    endloop
  endfacet
  facet normal -0 0 1
    outer loop
      vertex 0 1.8 7.5
      vertex 1.8 0 7.5
      vertex 1.8 1.8 7.5
    endloop
  endfacet
  facet normal 0 0 1
    outer loop
      vertex 1.8 0 7.5
      vertex 0 1.8 7.5
      vertex 0 0 7.5
    endloop
  endfacet
  facet normal 0 1 -0
    outer loop
      vertex 1.8 1.8 2
      vertex 0 1.8 7.5
      vertex 1.8 1.8 7.5
    endloop
  endfacet
  facet normal 0 1 0
    outer loop
      vertex 0 1.8 7.5
      vertex 1.8 1.8 2
      vertex 0 1.8 2
    endloop
  endfacet
  facet normal 0 1 -0
    outer loop
      vertex 1.8 10 0
      vertex 0 10 7.5
      vertex 1.8 10 7.5
    endloop
  endfacet
  facet normal 0 1 0
    outer loop
      vertex 0 10 7.5
      vertex 1.8 10 0
      vertex 0 10 0
    endloop
  endfacet
  facet normal -0 0 1
    outer loop
      vertex 0 10 7.5
      vertex 1.8 8.2 7.5
      vertex 1.8 10 7.5
    endloop
  endfacet
  facet normal 0 0 1
    outer loop
      vertex 1.8 8.2 7.5
      vertex 0 10 7.5
      vertex 0 8.2 7.5
    endloop
  endfacet
  facet normal 0 -1 0
    outer loop
      vertex 0 8.2 2
      vertex 1.8 8.2 7.5
      vertex 0 8.2 7.5
    endloop
  endfacet
  facet normal 0 -1 -0
    outer loop
      vertex 1.8 8.2 7.5
      vertex 0 8.2 2
      vertex 1.8 8.2 2
    endloop
  endfacet
endsolid OpenSCAD_Model
